<mxfile host="app.diagrams.net" modified="2024-07-20T20:53:11.409Z" agent="Mozilla/5.0 (Windows NT 10.0; Win64; x64) AppleWebKit/537.36 (KHTML, like Gecko) Chrome/126.0.0.0 Safari/537.36" etag="WeGLn7gQxhEVScHrBbXm" version="24.7.2" type="github">
  <diagram name="Page-1" id="fy9MFlwB3tOoA_Fu7364">
    <mxGraphModel dx="2390" dy="1243" grid="1" gridSize="10" guides="1" tooltips="1" connect="1" arrows="1" fold="1" page="1" pageScale="1" pageWidth="827" pageHeight="1169" background="none" math="0" shadow="0">
      <root>
        <mxCell id="0" />
        <mxCell id="1" parent="0" />
        <mxCell id="oyihTQzyywMHuzACYi7b-41" style="edgeStyle=elbowEdgeStyle;shape=connector;curved=1;rounded=0;jumpStyle=arc;orthogonalLoop=1;jettySize=auto;html=1;shadow=0;strokeColor=#aa5b43;align=center;verticalAlign=middle;fontFamily=Helvetica;fontSize=11;fontColor=default;labelBackgroundColor=default;endArrow=none;endFill=0;flowAnimation=0;" edge="1" parent="1" source="vlauwfzfE7p3HynKM8hs-1" target="vlauwfzfE7p3HynKM8hs-20">
          <mxGeometry relative="1" as="geometry" />
        </mxCell>
        <mxCell id="oyihTQzyywMHuzACYi7b-42" style="edgeStyle=elbowEdgeStyle;shape=connector;curved=1;rounded=0;jumpStyle=arc;orthogonalLoop=1;jettySize=auto;html=1;shadow=0;strokeColor=#aa5b43;align=center;verticalAlign=middle;fontFamily=Helvetica;fontSize=11;fontColor=default;labelBackgroundColor=default;endArrow=none;endFill=0;flowAnimation=0;" edge="1" parent="1" source="vlauwfzfE7p3HynKM8hs-1" target="vlauwfzfE7p3HynKM8hs-10">
          <mxGeometry relative="1" as="geometry" />
        </mxCell>
        <mxCell id="oyihTQzyywMHuzACYi7b-43" style="edgeStyle=elbowEdgeStyle;shape=connector;curved=1;rounded=0;jumpStyle=arc;orthogonalLoop=1;jettySize=auto;html=1;shadow=0;strokeColor=#aa5b43;align=center;verticalAlign=middle;fontFamily=Helvetica;fontSize=11;fontColor=default;labelBackgroundColor=default;endArrow=none;endFill=0;flowAnimation=0;" edge="1" parent="1" source="vlauwfzfE7p3HynKM8hs-1" target="vlauwfzfE7p3HynKM8hs-16">
          <mxGeometry relative="1" as="geometry" />
        </mxCell>
        <mxCell id="oyihTQzyywMHuzACYi7b-44" style="edgeStyle=elbowEdgeStyle;shape=connector;curved=1;rounded=0;jumpStyle=arc;orthogonalLoop=1;jettySize=auto;html=1;shadow=0;strokeColor=#aa5b43;align=center;verticalAlign=middle;fontFamily=Helvetica;fontSize=11;fontColor=default;labelBackgroundColor=default;endArrow=none;endFill=0;flowAnimation=0;" edge="1" parent="1" source="vlauwfzfE7p3HynKM8hs-1" target="vlauwfzfE7p3HynKM8hs-12">
          <mxGeometry relative="1" as="geometry" />
        </mxCell>
        <mxCell id="oyihTQzyywMHuzACYi7b-45" style="edgeStyle=elbowEdgeStyle;shape=connector;curved=1;rounded=0;jumpStyle=arc;orthogonalLoop=1;jettySize=auto;html=1;shadow=0;strokeColor=#aa5b43;align=center;verticalAlign=middle;fontFamily=Helvetica;fontSize=11;fontColor=default;labelBackgroundColor=default;endArrow=none;endFill=0;flowAnimation=0;" edge="1" parent="1" source="vlauwfzfE7p3HynKM8hs-1" target="vlauwfzfE7p3HynKM8hs-14">
          <mxGeometry relative="1" as="geometry" />
        </mxCell>
        <mxCell id="vlauwfzfE7p3HynKM8hs-1" value="Student" style="shape=umlActor;verticalLabelPosition=bottom;verticalAlign=top;html=1;labelBackgroundColor=none;fillColor=#F2CC8F;strokeColor=#E07A5F;fontColor=#393C56;rounded=1;" parent="1" vertex="1">
          <mxGeometry x="20" y="495" width="30" height="60" as="geometry" />
        </mxCell>
        <mxCell id="vlauwfzfE7p3HynKM8hs-4" value="Educator" style="shape=umlActor;verticalLabelPosition=bottom;verticalAlign=top;html=1;labelBackgroundColor=none;fillColor=#F2CC8F;strokeColor=#E07A5F;fontColor=#393C56;rounded=1;" parent="1" vertex="1">
          <mxGeometry x="732" y="180" width="30" height="60" as="geometry" />
        </mxCell>
        <mxCell id="vlauwfzfE7p3HynKM8hs-5" value="Support Team Member" style="shape=umlActor;verticalLabelPosition=bottom;verticalAlign=top;html=1;labelBackgroundColor=none;fillColor=#F2CC8F;strokeColor=#E07A5F;fontColor=#393C56;rounded=1;" parent="1" vertex="1">
          <mxGeometry x="732" y="785" width="30" height="60" as="geometry" />
        </mxCell>
        <mxCell id="vlauwfzfE7p3HynKM8hs-6" value="Scientific Team Manager" style="shape=umlActor;verticalLabelPosition=bottom;verticalAlign=top;html=1;labelBackgroundColor=none;fillColor=#F2CC8F;strokeColor=#E07A5F;fontColor=#393C56;rounded=1;" parent="1" vertex="1">
          <mxGeometry x="732" y="360" width="30" height="60" as="geometry" />
        </mxCell>
        <mxCell id="vlauwfzfE7p3HynKM8hs-7" value="Scientific Team supervisor" style="shape=umlActor;verticalLabelPosition=bottom;verticalAlign=top;html=1;labelBackgroundColor=none;fillColor=#F2CC8F;strokeColor=#E07A5F;fontColor=#393C56;rounded=1;" parent="1" vertex="1">
          <mxGeometry x="732" y="260" width="30" height="60" as="geometry" />
        </mxCell>
        <mxCell id="vlauwfzfE7p3HynKM8hs-8" value="Scientific Team Member" style="shape=umlActor;verticalLabelPosition=bottom;verticalAlign=top;html=1;labelBackgroundColor=none;fillColor=#F2CC8F;strokeColor=#E07A5F;fontColor=#393C56;rounded=1;" parent="1" vertex="1">
          <mxGeometry x="732" y="480" width="30" height="60" as="geometry" />
        </mxCell>
        <mxCell id="vlauwfzfE7p3HynKM8hs-10" value="Question" style="ellipse;whiteSpace=wrap;html=1;labelBackgroundColor=none;fillColor=#F2CC8F;strokeColor=#E07A5F;fontColor=#393C56;rounded=1;" parent="1" vertex="1">
          <mxGeometry x="316" y="290" width="140" height="70" as="geometry" />
        </mxCell>
        <mxCell id="vlauwfzfE7p3HynKM8hs-11" value="Transcript" style="ellipse;whiteSpace=wrap;html=1;labelBackgroundColor=none;fillColor=#F2CC8F;strokeColor=#E07A5F;fontColor=#393C56;rounded=1;" parent="1" vertex="1">
          <mxGeometry x="316" y="390" width="140" height="70" as="geometry" />
        </mxCell>
        <mxCell id="vlauwfzfE7p3HynKM8hs-12" value="Shorts" style="ellipse;whiteSpace=wrap;html=1;labelBackgroundColor=none;fillColor=#F2CC8F;strokeColor=#E07A5F;fontColor=#393C56;rounded=1;" parent="1" vertex="1">
          <mxGeometry x="316" y="485" width="140" height="70" as="geometry" />
        </mxCell>
        <mxCell id="vlauwfzfE7p3HynKM8hs-14" value="PSET" style="ellipse;whiteSpace=wrap;html=1;labelBackgroundColor=none;fillColor=#F2CC8F;strokeColor=#E07A5F;fontColor=#393C56;rounded=1;" parent="1" vertex="1">
          <mxGeometry x="315" y="585" width="140" height="70" as="geometry" />
        </mxCell>
        <mxCell id="vlauwfzfE7p3HynKM8hs-16" value="Office Hour" style="ellipse;whiteSpace=wrap;html=1;labelBackgroundColor=none;fillColor=#F2CC8F;strokeColor=#E07A5F;fontColor=#393C56;rounded=1;" parent="1" vertex="1">
          <mxGeometry x="315" y="679" width="140" height="70" as="geometry" />
        </mxCell>
        <mxCell id="vlauwfzfE7p3HynKM8hs-17" value="General Usage Guide" style="ellipse;whiteSpace=wrap;html=1;labelBackgroundColor=none;fillColor=#F2CC8F;strokeColor=#E07A5F;fontColor=#393C56;rounded=1;" parent="1" vertex="1">
          <mxGeometry x="316" y="775" width="140" height="70" as="geometry" />
        </mxCell>
        <mxCell id="vlauwfzfE7p3HynKM8hs-20" value="Teaching" style="ellipse;whiteSpace=wrap;html=1;labelBackgroundColor=none;fillColor=#F2CC8F;strokeColor=#E07A5F;fontColor=#393C56;rounded=1;" parent="1" vertex="1">
          <mxGeometry x="316" y="200" width="140" height="70" as="geometry" />
        </mxCell>
        <mxCell id="vlauwfzfE7p3HynKM8hs-22" value="SC Team" style="shape=umlFrame;whiteSpace=wrap;html=1;pointerEvents=0;labelBackgroundColor=none;fillColor=#F2CC8F;strokeColor=#E07A5F;fontColor=#393C56;rounded=1;" parent="1" vertex="1">
          <mxGeometry x="162" y="90" width="700" height="860" as="geometry" />
        </mxCell>
        <mxCell id="vlauwfzfE7p3HynKM8hs-25" value="Support Team Manager" style="shape=umlActor;verticalLabelPosition=bottom;verticalAlign=top;html=1;labelBackgroundColor=none;fillColor=#F2CC8F;strokeColor=#E07A5F;fontColor=#393C56;rounded=1;" parent="1" vertex="1">
          <mxGeometry x="732" y="584.5" width="30" height="60" as="geometry" />
        </mxCell>
        <mxCell id="oyihTQzyywMHuzACYi7b-1" style="edgeStyle=elbowEdgeStyle;rounded=0;orthogonalLoop=1;jettySize=auto;html=1;entryX=0.5;entryY=0.5;entryDx=0;entryDy=0;entryPerimeter=0;jumpStyle=arc;shadow=0;flowAnimation=0;curved=1;strokeColor=#aa5b43;endArrow=none;endFill=0;" edge="1" parent="1" source="vlauwfzfE7p3HynKM8hs-11" target="vlauwfzfE7p3HynKM8hs-4">
          <mxGeometry relative="1" as="geometry" />
        </mxCell>
        <mxCell id="oyihTQzyywMHuzACYi7b-2" style="edgeStyle=elbowEdgeStyle;shape=connector;curved=1;rounded=0;jumpStyle=arc;orthogonalLoop=1;jettySize=auto;html=1;entryX=0.5;entryY=0.5;entryDx=0;entryDy=0;entryPerimeter=0;shadow=0;strokeColor=#aa5b43;align=center;verticalAlign=middle;fontFamily=Helvetica;fontSize=11;fontColor=default;labelBackgroundColor=default;endArrow=none;endFill=0;flowAnimation=0;" edge="1" parent="1" source="vlauwfzfE7p3HynKM8hs-20" target="vlauwfzfE7p3HynKM8hs-4">
          <mxGeometry relative="1" as="geometry" />
        </mxCell>
        <mxCell id="oyihTQzyywMHuzACYi7b-7" style="edgeStyle=elbowEdgeStyle;shape=connector;curved=1;rounded=0;jumpStyle=arc;orthogonalLoop=1;jettySize=auto;html=1;entryX=0.5;entryY=0.5;entryDx=0;entryDy=0;entryPerimeter=0;shadow=0;strokeColor=#aa5b43;align=center;verticalAlign=middle;fontFamily=Helvetica;fontSize=11;fontColor=default;labelBackgroundColor=default;endArrow=none;endFill=0;flowAnimation=0;" edge="1" parent="1" source="vlauwfzfE7p3HynKM8hs-20" target="vlauwfzfE7p3HynKM8hs-6">
          <mxGeometry relative="1" as="geometry" />
        </mxCell>
        <mxCell id="oyihTQzyywMHuzACYi7b-8" style="edgeStyle=elbowEdgeStyle;shape=connector;curved=1;rounded=0;jumpStyle=arc;orthogonalLoop=1;jettySize=auto;html=1;entryX=0.5;entryY=0.5;entryDx=0;entryDy=0;entryPerimeter=0;shadow=0;strokeColor=#aa5b43;align=center;verticalAlign=middle;fontFamily=Helvetica;fontSize=11;fontColor=default;labelBackgroundColor=default;endArrow=none;endFill=0;flowAnimation=0;" edge="1" parent="1" source="vlauwfzfE7p3HynKM8hs-10" target="vlauwfzfE7p3HynKM8hs-6">
          <mxGeometry relative="1" as="geometry" />
        </mxCell>
        <mxCell id="oyihTQzyywMHuzACYi7b-9" style="edgeStyle=elbowEdgeStyle;shape=connector;curved=1;rounded=0;jumpStyle=arc;orthogonalLoop=1;jettySize=auto;html=1;entryX=0.5;entryY=0.5;entryDx=0;entryDy=0;entryPerimeter=0;shadow=0;strokeColor=#aa5b43;align=center;verticalAlign=middle;fontFamily=Helvetica;fontSize=11;fontColor=default;labelBackgroundColor=default;endArrow=none;endFill=0;flowAnimation=0;" edge="1" parent="1" source="vlauwfzfE7p3HynKM8hs-11" target="vlauwfzfE7p3HynKM8hs-6">
          <mxGeometry relative="1" as="geometry" />
        </mxCell>
        <mxCell id="oyihTQzyywMHuzACYi7b-10" style="edgeStyle=elbowEdgeStyle;shape=connector;curved=1;rounded=0;jumpStyle=arc;orthogonalLoop=1;jettySize=auto;html=1;entryX=0.5;entryY=0.5;entryDx=0;entryDy=0;entryPerimeter=0;shadow=0;strokeColor=#aa5b43;align=center;verticalAlign=middle;fontFamily=Helvetica;fontSize=11;fontColor=default;labelBackgroundColor=default;endArrow=none;endFill=0;flowAnimation=0;" edge="1" parent="1" source="vlauwfzfE7p3HynKM8hs-12" target="vlauwfzfE7p3HynKM8hs-6">
          <mxGeometry relative="1" as="geometry" />
        </mxCell>
        <mxCell id="oyihTQzyywMHuzACYi7b-11" style="edgeStyle=elbowEdgeStyle;shape=connector;curved=1;rounded=0;jumpStyle=arc;orthogonalLoop=1;jettySize=auto;html=1;entryX=0.5;entryY=0.5;entryDx=0;entryDy=0;entryPerimeter=0;shadow=0;strokeColor=#aa5b43;align=center;verticalAlign=middle;fontFamily=Helvetica;fontSize=11;fontColor=default;labelBackgroundColor=default;endArrow=none;endFill=0;flowAnimation=0;" edge="1" parent="1" source="vlauwfzfE7p3HynKM8hs-14" target="vlauwfzfE7p3HynKM8hs-6">
          <mxGeometry relative="1" as="geometry" />
        </mxCell>
        <mxCell id="oyihTQzyywMHuzACYi7b-13" style="edgeStyle=elbowEdgeStyle;shape=connector;curved=1;rounded=0;jumpStyle=arc;orthogonalLoop=1;jettySize=auto;html=1;entryX=0.5;entryY=0.5;entryDx=0;entryDy=0;entryPerimeter=0;shadow=0;strokeColor=#aa5b43;align=center;verticalAlign=middle;fontFamily=Helvetica;fontSize=11;fontColor=default;labelBackgroundColor=default;endArrow=none;endFill=0;flowAnimation=0;" edge="1" parent="1" source="vlauwfzfE7p3HynKM8hs-16" target="vlauwfzfE7p3HynKM8hs-6">
          <mxGeometry relative="1" as="geometry" />
        </mxCell>
        <mxCell id="oyihTQzyywMHuzACYi7b-14" style="edgeStyle=elbowEdgeStyle;shape=connector;curved=1;rounded=0;jumpStyle=arc;orthogonalLoop=1;jettySize=auto;html=1;entryX=0.5;entryY=0.5;entryDx=0;entryDy=0;entryPerimeter=0;shadow=0;strokeColor=#aa5b43;align=center;verticalAlign=middle;fontFamily=Helvetica;fontSize=11;fontColor=default;labelBackgroundColor=default;endArrow=none;endFill=0;flowAnimation=0;" edge="1" parent="1" source="vlauwfzfE7p3HynKM8hs-17" target="vlauwfzfE7p3HynKM8hs-6">
          <mxGeometry relative="1" as="geometry" />
        </mxCell>
        <mxCell id="oyihTQzyywMHuzACYi7b-20" style="edgeStyle=elbowEdgeStyle;shape=connector;curved=1;rounded=0;jumpStyle=arc;orthogonalLoop=1;jettySize=auto;html=1;entryX=0.5;entryY=0.5;entryDx=0;entryDy=0;entryPerimeter=0;shadow=0;strokeColor=#aa5b43;align=center;verticalAlign=middle;fontFamily=Helvetica;fontSize=11;fontColor=default;labelBackgroundColor=default;endArrow=none;endFill=0;flowAnimation=0;" edge="1" parent="1" source="vlauwfzfE7p3HynKM8hs-10" target="vlauwfzfE7p3HynKM8hs-7">
          <mxGeometry relative="1" as="geometry" />
        </mxCell>
        <mxCell id="oyihTQzyywMHuzACYi7b-21" style="edgeStyle=elbowEdgeStyle;shape=connector;curved=1;rounded=0;jumpStyle=arc;orthogonalLoop=1;jettySize=auto;html=1;entryX=0.5;entryY=0.5;entryDx=0;entryDy=0;entryPerimeter=0;shadow=0;strokeColor=#aa5b43;align=center;verticalAlign=middle;fontFamily=Helvetica;fontSize=11;fontColor=default;labelBackgroundColor=default;endArrow=none;endFill=0;flowAnimation=0;" edge="1" parent="1" source="vlauwfzfE7p3HynKM8hs-11" target="vlauwfzfE7p3HynKM8hs-7">
          <mxGeometry relative="1" as="geometry" />
        </mxCell>
        <mxCell id="oyihTQzyywMHuzACYi7b-22" style="edgeStyle=elbowEdgeStyle;shape=connector;curved=1;rounded=0;jumpStyle=arc;orthogonalLoop=1;jettySize=auto;html=1;entryX=0.5;entryY=0.5;entryDx=0;entryDy=0;entryPerimeter=0;shadow=0;strokeColor=#aa5b43;align=center;verticalAlign=middle;fontFamily=Helvetica;fontSize=11;fontColor=default;labelBackgroundColor=default;endArrow=none;endFill=0;flowAnimation=0;" edge="1" parent="1" source="vlauwfzfE7p3HynKM8hs-12" target="vlauwfzfE7p3HynKM8hs-7">
          <mxGeometry relative="1" as="geometry" />
        </mxCell>
        <mxCell id="oyihTQzyywMHuzACYi7b-23" style="edgeStyle=elbowEdgeStyle;shape=connector;curved=1;rounded=0;jumpStyle=arc;orthogonalLoop=1;jettySize=auto;html=1;entryX=0.5;entryY=0.5;entryDx=0;entryDy=0;entryPerimeter=0;shadow=0;strokeColor=#aa5b43;align=center;verticalAlign=middle;fontFamily=Helvetica;fontSize=11;fontColor=default;labelBackgroundColor=default;endArrow=none;endFill=0;flowAnimation=0;" edge="1" parent="1" source="vlauwfzfE7p3HynKM8hs-14" target="vlauwfzfE7p3HynKM8hs-7">
          <mxGeometry relative="1" as="geometry" />
        </mxCell>
        <mxCell id="oyihTQzyywMHuzACYi7b-24" style="edgeStyle=elbowEdgeStyle;shape=connector;curved=1;rounded=0;jumpStyle=arc;orthogonalLoop=1;jettySize=auto;html=1;entryX=0.5;entryY=0.5;entryDx=0;entryDy=0;entryPerimeter=0;shadow=0;strokeColor=#aa5b43;align=center;verticalAlign=middle;fontFamily=Helvetica;fontSize=11;fontColor=default;labelBackgroundColor=default;endArrow=none;endFill=0;flowAnimation=0;" edge="1" parent="1" source="vlauwfzfE7p3HynKM8hs-16" target="vlauwfzfE7p3HynKM8hs-7">
          <mxGeometry relative="1" as="geometry" />
        </mxCell>
        <mxCell id="oyihTQzyywMHuzACYi7b-25" style="edgeStyle=elbowEdgeStyle;shape=connector;curved=1;rounded=0;jumpStyle=arc;orthogonalLoop=1;jettySize=auto;html=1;entryX=0.5;entryY=0.5;entryDx=0;entryDy=0;entryPerimeter=0;shadow=0;strokeColor=#aa5b43;align=center;verticalAlign=middle;fontFamily=Helvetica;fontSize=11;fontColor=default;labelBackgroundColor=default;endArrow=none;endFill=0;flowAnimation=0;" edge="1" parent="1" source="vlauwfzfE7p3HynKM8hs-17" target="vlauwfzfE7p3HynKM8hs-7">
          <mxGeometry relative="1" as="geometry" />
        </mxCell>
        <mxCell id="oyihTQzyywMHuzACYi7b-27" style="edgeStyle=elbowEdgeStyle;shape=connector;curved=1;rounded=0;jumpStyle=arc;orthogonalLoop=1;jettySize=auto;html=1;entryX=0.5;entryY=0.5;entryDx=0;entryDy=0;entryPerimeter=0;shadow=0;strokeColor=#aa5b43;align=center;verticalAlign=middle;fontFamily=Helvetica;fontSize=11;fontColor=default;labelBackgroundColor=default;endArrow=none;endFill=0;flowAnimation=0;" edge="1" parent="1" source="vlauwfzfE7p3HynKM8hs-10" target="vlauwfzfE7p3HynKM8hs-8">
          <mxGeometry relative="1" as="geometry" />
        </mxCell>
        <mxCell id="oyihTQzyywMHuzACYi7b-29" style="edgeStyle=elbowEdgeStyle;shape=connector;curved=1;rounded=0;jumpStyle=arc;orthogonalLoop=1;jettySize=auto;html=1;shadow=0;strokeColor=#aa5b43;align=center;verticalAlign=middle;fontFamily=Helvetica;fontSize=11;fontColor=default;labelBackgroundColor=default;endArrow=none;endFill=0;flowAnimation=0;" edge="1" parent="1" source="oyihTQzyywMHuzACYi7b-28">
          <mxGeometry relative="1" as="geometry">
            <mxPoint x="740" y="210" as="targetPoint" />
          </mxGeometry>
        </mxCell>
        <mxCell id="oyihTQzyywMHuzACYi7b-31" style="edgeStyle=elbowEdgeStyle;shape=connector;curved=1;rounded=0;jumpStyle=arc;orthogonalLoop=1;jettySize=auto;html=1;shadow=0;strokeColor=#aa5b43;align=center;verticalAlign=middle;fontFamily=Helvetica;fontSize=11;fontColor=default;labelBackgroundColor=default;endArrow=none;endFill=0;flowAnimation=0;" edge="1" parent="1" source="oyihTQzyywMHuzACYi7b-28">
          <mxGeometry relative="1" as="geometry">
            <mxPoint x="740" y="390" as="targetPoint" />
          </mxGeometry>
        </mxCell>
        <mxCell id="oyihTQzyywMHuzACYi7b-28" value="Slides" style="ellipse;whiteSpace=wrap;html=1;labelBackgroundColor=none;fillColor=#F2CC8F;strokeColor=#E07A5F;fontColor=#393C56;rounded=1;" vertex="1" parent="1">
          <mxGeometry x="316" y="870" width="140" height="70" as="geometry" />
        </mxCell>
        <mxCell id="oyihTQzyywMHuzACYi7b-30" style="edgeStyle=elbowEdgeStyle;shape=connector;curved=1;rounded=0;jumpStyle=arc;orthogonalLoop=1;jettySize=auto;html=1;entryX=0.5;entryY=0.5;entryDx=0;entryDy=0;entryPerimeter=0;shadow=0;strokeColor=#aa5b43;align=center;verticalAlign=middle;fontFamily=Helvetica;fontSize=11;fontColor=default;labelBackgroundColor=default;endArrow=none;endFill=0;flowAnimation=0;" edge="1" parent="1" source="oyihTQzyywMHuzACYi7b-28" target="vlauwfzfE7p3HynKM8hs-7">
          <mxGeometry relative="1" as="geometry" />
        </mxCell>
        <mxCell id="oyihTQzyywMHuzACYi7b-32" style="edgeStyle=elbowEdgeStyle;shape=connector;curved=1;rounded=0;jumpStyle=arc;orthogonalLoop=1;jettySize=auto;html=1;entryX=0.5;entryY=0.5;entryDx=0;entryDy=0;entryPerimeter=0;shadow=0;strokeColor=#aa5b43;align=center;verticalAlign=middle;fontFamily=Helvetica;fontSize=11;fontColor=default;labelBackgroundColor=default;endArrow=none;endFill=0;flowAnimation=0;" edge="1" parent="1" source="oyihTQzyywMHuzACYi7b-28" target="vlauwfzfE7p3HynKM8hs-8">
          <mxGeometry relative="1" as="geometry" />
        </mxCell>
        <mxCell id="oyihTQzyywMHuzACYi7b-33" value="Support Team Supervisor" style="shape=umlActor;verticalLabelPosition=bottom;verticalAlign=top;html=1;labelBackgroundColor=none;fillColor=#F2CC8F;strokeColor=#E07A5F;fontColor=#393C56;rounded=1;" vertex="1" parent="1">
          <mxGeometry x="732" y="689" width="30" height="60" as="geometry" />
        </mxCell>
        <mxCell id="oyihTQzyywMHuzACYi7b-34" style="edgeStyle=elbowEdgeStyle;shape=connector;curved=1;rounded=0;jumpStyle=arc;orthogonalLoop=1;jettySize=auto;html=1;entryX=0.5;entryY=0.5;entryDx=0;entryDy=0;entryPerimeter=0;shadow=0;strokeColor=#aa5b43;align=center;verticalAlign=middle;fontFamily=Helvetica;fontSize=11;fontColor=default;labelBackgroundColor=default;endArrow=none;endFill=0;flowAnimation=0;" edge="1" parent="1" source="vlauwfzfE7p3HynKM8hs-12" target="vlauwfzfE7p3HynKM8hs-8">
          <mxGeometry relative="1" as="geometry" />
        </mxCell>
        <mxCell id="oyihTQzyywMHuzACYi7b-35" style="edgeStyle=elbowEdgeStyle;shape=connector;curved=1;rounded=0;jumpStyle=arc;orthogonalLoop=1;jettySize=auto;html=1;entryX=0.5;entryY=0.5;entryDx=0;entryDy=0;entryPerimeter=0;shadow=0;strokeColor=#aa5b43;align=center;verticalAlign=middle;fontFamily=Helvetica;fontSize=11;fontColor=default;labelBackgroundColor=default;endArrow=none;endFill=0;flowAnimation=0;" edge="1" parent="1" source="vlauwfzfE7p3HynKM8hs-14" target="vlauwfzfE7p3HynKM8hs-8">
          <mxGeometry relative="1" as="geometry" />
        </mxCell>
        <mxCell id="oyihTQzyywMHuzACYi7b-36" style="edgeStyle=elbowEdgeStyle;shape=connector;curved=1;rounded=0;jumpStyle=arc;orthogonalLoop=1;jettySize=auto;html=1;entryX=0.5;entryY=0.5;entryDx=0;entryDy=0;entryPerimeter=0;shadow=0;strokeColor=#aa5b43;align=center;verticalAlign=middle;fontFamily=Helvetica;fontSize=11;fontColor=default;labelBackgroundColor=default;endArrow=none;endFill=0;flowAnimation=0;" edge="1" parent="1" source="vlauwfzfE7p3HynKM8hs-16" target="vlauwfzfE7p3HynKM8hs-8">
          <mxGeometry relative="1" as="geometry" />
        </mxCell>
        <mxCell id="oyihTQzyywMHuzACYi7b-37" style="edgeStyle=elbowEdgeStyle;shape=connector;curved=1;rounded=0;jumpStyle=arc;orthogonalLoop=1;jettySize=auto;html=1;entryX=0.5;entryY=0.5;entryDx=0;entryDy=0;entryPerimeter=0;shadow=0;strokeColor=#aa5b43;align=center;verticalAlign=middle;fontFamily=Helvetica;fontSize=11;fontColor=default;labelBackgroundColor=default;endArrow=none;endFill=0;flowAnimation=0;" edge="1" parent="1" source="vlauwfzfE7p3HynKM8hs-17" target="vlauwfzfE7p3HynKM8hs-8">
          <mxGeometry relative="1" as="geometry" />
        </mxCell>
        <mxCell id="oyihTQzyywMHuzACYi7b-38" style="edgeStyle=elbowEdgeStyle;shape=connector;curved=1;rounded=0;jumpStyle=arc;orthogonalLoop=1;jettySize=auto;html=1;entryX=0.543;entryY=0.664;entryDx=0;entryDy=0;entryPerimeter=0;shadow=0;strokeColor=#aa5b43;align=center;verticalAlign=middle;fontFamily=Helvetica;fontSize=11;fontColor=default;labelBackgroundColor=default;endArrow=none;endFill=0;flowAnimation=0;" edge="1" parent="1" source="vlauwfzfE7p3HynKM8hs-17" target="vlauwfzfE7p3HynKM8hs-25">
          <mxGeometry relative="1" as="geometry" />
        </mxCell>
        <mxCell id="oyihTQzyywMHuzACYi7b-39" style="edgeStyle=elbowEdgeStyle;shape=connector;curved=1;rounded=0;jumpStyle=arc;orthogonalLoop=1;jettySize=auto;html=1;entryX=0.5;entryY=0.5;entryDx=0;entryDy=0;entryPerimeter=0;shadow=0;strokeColor=#aa5b43;align=center;verticalAlign=middle;fontFamily=Helvetica;fontSize=11;fontColor=default;labelBackgroundColor=default;endArrow=none;endFill=0;flowAnimation=0;" edge="1" parent="1" source="vlauwfzfE7p3HynKM8hs-17" target="oyihTQzyywMHuzACYi7b-33">
          <mxGeometry relative="1" as="geometry" />
        </mxCell>
        <mxCell id="oyihTQzyywMHuzACYi7b-40" style="edgeStyle=elbowEdgeStyle;shape=connector;curved=1;rounded=0;jumpStyle=arc;orthogonalLoop=1;jettySize=auto;html=1;entryX=0.5;entryY=0.5;entryDx=0;entryDy=0;entryPerimeter=0;shadow=0;strokeColor=#aa5b43;align=center;verticalAlign=middle;fontFamily=Helvetica;fontSize=11;fontColor=default;labelBackgroundColor=default;endArrow=none;endFill=0;flowAnimation=0;" edge="1" parent="1" source="vlauwfzfE7p3HynKM8hs-17" target="vlauwfzfE7p3HynKM8hs-5">
          <mxGeometry relative="1" as="geometry" />
        </mxCell>
        <mxCell id="oyihTQzyywMHuzACYi7b-48" style="edgeStyle=elbowEdgeStyle;shape=connector;curved=1;rounded=0;jumpStyle=arc;orthogonalLoop=1;jettySize=auto;html=1;shadow=0;strokeColor=#aa5b43;align=center;verticalAlign=middle;fontFamily=Helvetica;fontSize=11;fontColor=default;labelBackgroundColor=default;endArrow=none;endFill=0;flowAnimation=0;" edge="1" parent="1" source="oyihTQzyywMHuzACYi7b-46" target="oyihTQzyywMHuzACYi7b-47">
          <mxGeometry relative="1" as="geometry" />
        </mxCell>
        <mxCell id="oyihTQzyywMHuzACYi7b-46" value="Start" style="strokeWidth=2;html=1;shape=mxgraph.flowchart.start_2;whiteSpace=wrap;fontFamily=Helvetica;fontSize=11;labelBackgroundColor=default;fillColor=#ffcc99;strokeColor=#36393d;" vertex="1" parent="1">
          <mxGeometry x="1320" y="40" width="100" height="100" as="geometry" />
        </mxCell>
        <mxCell id="oyihTQzyywMHuzACYi7b-50" style="edgeStyle=elbowEdgeStyle;shape=connector;curved=1;rounded=0;jumpStyle=arc;orthogonalLoop=1;jettySize=auto;html=1;shadow=0;strokeColor=#aa5b43;align=center;verticalAlign=middle;fontFamily=Helvetica;fontSize=11;fontColor=default;labelBackgroundColor=default;endArrow=none;endFill=0;flowAnimation=0;" edge="1" parent="1" source="oyihTQzyywMHuzACYi7b-47" target="oyihTQzyywMHuzACYi7b-49">
          <mxGeometry relative="1" as="geometry" />
        </mxCell>
        <mxCell id="oyihTQzyywMHuzACYi7b-47" value="Question&lt;div&gt;&amp;nbsp;from user&lt;/div&gt;" style="html=1;strokeWidth=2;shape=manualInput;whiteSpace=wrap;rounded=1;size=13;arcSize=11;fontFamily=Helvetica;fontSize=11;labelBackgroundColor=default;fillColor=#ffcc99;strokeColor=#36393d;" vertex="1" parent="1">
          <mxGeometry x="1320" y="190" width="100" height="60" as="geometry" />
        </mxCell>
        <mxCell id="oyihTQzyywMHuzACYi7b-55" style="edgeStyle=elbowEdgeStyle;shape=connector;curved=1;rounded=0;jumpStyle=arc;orthogonalLoop=1;jettySize=auto;html=1;shadow=0;strokeColor=#aa5b43;align=center;verticalAlign=middle;fontFamily=Helvetica;fontSize=11;fontColor=default;labelBackgroundColor=default;endArrow=none;endFill=0;flowAnimation=0;" edge="1" parent="1" source="oyihTQzyywMHuzACYi7b-49" target="oyihTQzyywMHuzACYi7b-54">
          <mxGeometry relative="1" as="geometry" />
        </mxCell>
        <mxCell id="oyihTQzyywMHuzACYi7b-49" value="Can Support&lt;div&gt;Team Members&lt;/div&gt;&lt;div&gt;Answer&lt;/div&gt;" style="strokeWidth=2;html=1;shape=mxgraph.flowchart.decision;whiteSpace=wrap;rounded=1;strokeColor=#36393d;align=center;verticalAlign=middle;arcSize=11;fontFamily=Helvetica;fontSize=11;fontColor=default;labelBackgroundColor=default;fillColor=#ffcc99;" vertex="1" parent="1">
          <mxGeometry x="1320" y="320" width="100" height="100" as="geometry" />
        </mxCell>
        <mxCell id="oyihTQzyywMHuzACYi7b-52" style="edgeStyle=elbowEdgeStyle;shape=connector;curved=1;rounded=0;jumpStyle=arc;orthogonalLoop=1;jettySize=auto;html=1;entryX=1;entryY=0.5;entryDx=0;entryDy=0;entryPerimeter=0;shadow=0;strokeColor=#aa5b43;align=center;verticalAlign=middle;fontFamily=Helvetica;fontSize=11;fontColor=default;labelBackgroundColor=default;endArrow=none;endFill=0;flowAnimation=0;" edge="1" parent="1" source="oyihTQzyywMHuzACYi7b-49">
          <mxGeometry relative="1" as="geometry">
            <mxPoint x="1100" y="550" as="targetPoint" />
          </mxGeometry>
        </mxCell>
        <mxCell id="oyihTQzyywMHuzACYi7b-53" value="Yes" style="text;html=1;align=center;verticalAlign=middle;resizable=0;points=[];autosize=1;strokeColor=none;fillColor=none;fontFamily=Helvetica;fontSize=11;fontColor=default;labelBackgroundColor=default;" vertex="1" parent="1">
          <mxGeometry x="1240" y="345" width="40" height="30" as="geometry" />
        </mxCell>
        <mxCell id="oyihTQzyywMHuzACYi7b-58" style="edgeStyle=elbowEdgeStyle;shape=connector;curved=1;rounded=0;jumpStyle=arc;orthogonalLoop=1;jettySize=auto;html=1;shadow=0;strokeColor=#aa5b43;align=center;verticalAlign=middle;fontFamily=Helvetica;fontSize=11;fontColor=default;labelBackgroundColor=default;endArrow=none;endFill=0;flowAnimation=0;" edge="1" parent="1" source="oyihTQzyywMHuzACYi7b-54">
          <mxGeometry relative="1" as="geometry">
            <mxPoint x="1100" y="550" as="targetPoint" />
          </mxGeometry>
        </mxCell>
        <mxCell id="oyihTQzyywMHuzACYi7b-63" value="" style="edgeStyle=elbowEdgeStyle;shape=connector;curved=1;rounded=0;jumpStyle=arc;orthogonalLoop=1;jettySize=auto;html=1;shadow=0;strokeColor=#aa5b43;align=center;verticalAlign=middle;fontFamily=Helvetica;fontSize=11;fontColor=default;labelBackgroundColor=default;endArrow=none;endFill=0;flowAnimation=0;" edge="1" parent="1" source="oyihTQzyywMHuzACYi7b-54" target="oyihTQzyywMHuzACYi7b-60">
          <mxGeometry relative="1" as="geometry" />
        </mxCell>
        <mxCell id="oyihTQzyywMHuzACYi7b-54" value="Can Support&lt;div&gt;Team Supervisor or Manager&lt;/div&gt;&lt;div&gt;Answer&lt;/div&gt;" style="strokeWidth=2;html=1;shape=mxgraph.flowchart.decision;whiteSpace=wrap;rounded=1;strokeColor=#36393d;align=center;verticalAlign=middle;arcSize=11;fontFamily=Helvetica;fontSize=11;fontColor=default;labelBackgroundColor=default;fillColor=#ffcc99;" vertex="1" parent="1">
          <mxGeometry x="1320" y="480" width="100" height="100" as="geometry" />
        </mxCell>
        <mxCell id="oyihTQzyywMHuzACYi7b-56" value="No" style="text;html=1;align=center;verticalAlign=middle;resizable=0;points=[];autosize=1;strokeColor=none;fillColor=none;fontFamily=Helvetica;fontSize=11;fontColor=default;labelBackgroundColor=default;" vertex="1" parent="1">
          <mxGeometry x="1331" y="435" width="40" height="30" as="geometry" />
        </mxCell>
        <mxCell id="oyihTQzyywMHuzACYi7b-59" value="Yes" style="text;html=1;align=center;verticalAlign=middle;resizable=0;points=[];autosize=1;strokeColor=none;fillColor=none;fontFamily=Helvetica;fontSize=11;fontColor=default;labelBackgroundColor=default;" vertex="1" parent="1">
          <mxGeometry x="1280" y="490" width="40" height="30" as="geometry" />
        </mxCell>
        <mxCell id="oyihTQzyywMHuzACYi7b-64" style="edgeStyle=elbowEdgeStyle;shape=connector;curved=1;rounded=0;jumpStyle=arc;orthogonalLoop=1;jettySize=auto;html=1;shadow=0;strokeColor=#aa5b43;align=center;verticalAlign=middle;fontFamily=Helvetica;fontSize=11;fontColor=default;labelBackgroundColor=default;endArrow=none;endFill=0;flowAnimation=0;" edge="1" parent="1" source="oyihTQzyywMHuzACYi7b-60">
          <mxGeometry relative="1" as="geometry">
            <mxPoint x="1100" y="550" as="targetPoint" />
          </mxGeometry>
        </mxCell>
        <mxCell id="oyihTQzyywMHuzACYi7b-67" value="" style="edgeStyle=elbowEdgeStyle;shape=connector;curved=1;rounded=0;jumpStyle=arc;orthogonalLoop=1;jettySize=auto;html=1;shadow=0;strokeColor=#aa5b43;align=center;verticalAlign=middle;fontFamily=Helvetica;fontSize=11;fontColor=default;labelBackgroundColor=default;endArrow=none;endFill=0;flowAnimation=0;" edge="1" parent="1" source="oyihTQzyywMHuzACYi7b-60" target="oyihTQzyywMHuzACYi7b-66">
          <mxGeometry relative="1" as="geometry" />
        </mxCell>
        <mxCell id="oyihTQzyywMHuzACYi7b-60" value="Can SC Team Memeber Answer" style="strokeWidth=2;html=1;shape=mxgraph.flowchart.decision;whiteSpace=wrap;rounded=1;strokeColor=#36393d;align=center;verticalAlign=middle;arcSize=11;fontFamily=Helvetica;fontSize=11;fontColor=default;labelBackgroundColor=default;fillColor=#ffcc99;" vertex="1" parent="1">
          <mxGeometry x="1320" y="645" width="100" height="100" as="geometry" />
        </mxCell>
        <mxCell id="oyihTQzyywMHuzACYi7b-61" value="No" style="text;html=1;align=center;verticalAlign=middle;resizable=0;points=[];autosize=1;strokeColor=none;fillColor=none;fontFamily=Helvetica;fontSize=11;fontColor=default;labelBackgroundColor=default;" vertex="1" parent="1">
          <mxGeometry x="1331" y="595" width="40" height="30" as="geometry" />
        </mxCell>
        <mxCell id="oyihTQzyywMHuzACYi7b-65" value="Yes" style="text;html=1;align=center;verticalAlign=middle;resizable=0;points=[];autosize=1;strokeColor=none;fillColor=none;fontFamily=Helvetica;fontSize=11;fontColor=default;labelBackgroundColor=default;" vertex="1" parent="1">
          <mxGeometry x="1270" y="659" width="40" height="30" as="geometry" />
        </mxCell>
        <mxCell id="oyihTQzyywMHuzACYi7b-77" value="" style="edgeStyle=elbowEdgeStyle;shape=connector;curved=1;rounded=0;jumpStyle=arc;orthogonalLoop=1;jettySize=auto;html=1;shadow=0;strokeColor=#aa5b43;align=center;verticalAlign=middle;fontFamily=Helvetica;fontSize=11;fontColor=default;labelBackgroundColor=default;endArrow=none;endFill=0;flowAnimation=0;" edge="1" parent="1" source="oyihTQzyywMHuzACYi7b-66" target="oyihTQzyywMHuzACYi7b-76">
          <mxGeometry relative="1" as="geometry" />
        </mxCell>
        <mxCell id="oyihTQzyywMHuzACYi7b-66" value="Can SC Team SuperVisor or Manager&lt;div&gt;Answer&lt;/div&gt;" style="strokeWidth=2;html=1;shape=mxgraph.flowchart.decision;whiteSpace=wrap;rounded=1;strokeColor=#36393d;align=center;verticalAlign=middle;arcSize=11;fontFamily=Helvetica;fontSize=11;fontColor=default;labelBackgroundColor=default;fillColor=#ffcc99;" vertex="1" parent="1">
          <mxGeometry x="1320" y="810" width="100" height="100" as="geometry" />
        </mxCell>
        <mxCell id="oyihTQzyywMHuzACYi7b-68" value="No" style="text;html=1;align=center;verticalAlign=middle;resizable=0;points=[];autosize=1;strokeColor=none;fillColor=none;fontFamily=Helvetica;fontSize=11;fontColor=default;labelBackgroundColor=default;" vertex="1" parent="1">
          <mxGeometry x="1331" y="765" width="40" height="30" as="geometry" />
        </mxCell>
        <mxCell id="oyihTQzyywMHuzACYi7b-69" style="edgeStyle=elbowEdgeStyle;shape=connector;curved=1;rounded=0;jumpStyle=arc;orthogonalLoop=1;jettySize=auto;html=1;entryX=1;entryY=0.5;entryDx=0;entryDy=0;entryPerimeter=0;shadow=0;strokeColor=#aa5b43;align=center;verticalAlign=middle;fontFamily=Helvetica;fontSize=11;fontColor=default;labelBackgroundColor=default;endArrow=none;endFill=0;flowAnimation=0;" edge="1" parent="1" source="oyihTQzyywMHuzACYi7b-66">
          <mxGeometry relative="1" as="geometry">
            <mxPoint x="1100" y="550" as="targetPoint" />
          </mxGeometry>
        </mxCell>
        <mxCell id="oyihTQzyywMHuzACYi7b-70" value="Yes" style="text;html=1;align=center;verticalAlign=middle;resizable=0;points=[];autosize=1;strokeColor=none;fillColor=none;fontFamily=Helvetica;fontSize=11;fontColor=default;labelBackgroundColor=default;" vertex="1" parent="1">
          <mxGeometry x="1270" y="820" width="40" height="30" as="geometry" />
        </mxCell>
        <mxCell id="oyihTQzyywMHuzACYi7b-75" style="edgeStyle=elbowEdgeStyle;shape=connector;curved=1;rounded=0;jumpStyle=arc;orthogonalLoop=1;jettySize=auto;html=1;shadow=0;strokeColor=#aa5b43;align=center;verticalAlign=middle;fontFamily=Helvetica;fontSize=11;fontColor=default;labelBackgroundColor=default;endArrow=none;endFill=0;flowAnimation=0;" edge="1" parent="1" source="oyihTQzyywMHuzACYi7b-73" target="oyihTQzyywMHuzACYi7b-74">
          <mxGeometry relative="1" as="geometry" />
        </mxCell>
        <mxCell id="oyihTQzyywMHuzACYi7b-73" value="Answer" style="rounded=1;whiteSpace=wrap;html=1;absoluteArcSize=1;arcSize=14;strokeWidth=2;strokeColor=#36393d;align=center;verticalAlign=middle;fontFamily=Helvetica;fontSize=11;fontColor=default;labelBackgroundColor=default;fillColor=#ffcc99;fixDash=0;container=0;editable=1;movable=1;resizable=1;rotatable=1;deletable=1;locked=0;connectable=1;" vertex="1" parent="1">
          <mxGeometry x="1000" y="495" width="100" height="100" as="geometry" />
        </mxCell>
        <mxCell id="oyihTQzyywMHuzACYi7b-74" value="End" style="strokeWidth=2;html=1;shape=mxgraph.flowchart.terminator;whiteSpace=wrap;rounded=1;strokeColor=#36393d;align=center;verticalAlign=middle;arcSize=11;fontFamily=Helvetica;fontSize=11;fontColor=default;labelBackgroundColor=default;fillColor=#ffcc99;" vertex="1" parent="1">
          <mxGeometry x="1000" y="830" width="100" height="60" as="geometry" />
        </mxCell>
        <mxCell id="oyihTQzyywMHuzACYi7b-78" style="edgeStyle=elbowEdgeStyle;shape=connector;curved=1;rounded=0;jumpStyle=arc;orthogonalLoop=1;jettySize=auto;html=1;entryX=1;entryY=0.5;entryDx=0;entryDy=0;shadow=0;strokeColor=#aa5b43;align=center;verticalAlign=middle;fontFamily=Helvetica;fontSize=11;fontColor=default;labelBackgroundColor=default;endArrow=none;endFill=0;flowAnimation=0;" edge="1" parent="1" source="oyihTQzyywMHuzACYi7b-76" target="oyihTQzyywMHuzACYi7b-73">
          <mxGeometry relative="1" as="geometry" />
        </mxCell>
        <mxCell id="oyihTQzyywMHuzACYi7b-76" value="Ask Educator for answer" style="whiteSpace=wrap;html=1;fontSize=11;fillColor=#ffcc99;strokeColor=#36393d;strokeWidth=2;rounded=1;arcSize=11;labelBackgroundColor=default;" vertex="1" parent="1">
          <mxGeometry x="1325" y="1000" width="90" height="90" as="geometry" />
        </mxCell>
        <mxCell id="oyihTQzyywMHuzACYi7b-79" value="Yes" style="text;html=1;align=center;verticalAlign=middle;resizable=0;points=[];autosize=1;strokeColor=none;fillColor=none;fontFamily=Helvetica;fontSize=11;fontColor=default;labelBackgroundColor=default;" vertex="1" parent="1">
          <mxGeometry x="1270" y="1000" width="40" height="30" as="geometry" />
        </mxCell>
        <mxCell id="oyihTQzyywMHuzACYi7b-80" value="No" style="text;html=1;align=center;verticalAlign=middle;resizable=0;points=[];autosize=1;strokeColor=none;fillColor=none;fontFamily=Helvetica;fontSize=11;fontColor=default;labelBackgroundColor=default;" vertex="1" parent="1">
          <mxGeometry x="1331" y="940" width="40" height="30" as="geometry" />
        </mxCell>
      </root>
    </mxGraphModel>
  </diagram>
</mxfile>
